# AST/ASF file generated using VICON BodyLanguage
# -----------------------------------------------
:version 1.10
:name VICON
:units
  mass 1.0
  length 0.45
  angle deg
:documentation
   .ast/.asf automatically generated from VICON data using
   VICON BodyBuilder and BodyLanguage model FoxedUp or BRILLIANT.MOD
:root
   order TX TY TZ RX RY RZ
   axis XYZ
   position 0 0 0  
   orientation 0 -0 0 
:bonedata
  begin
     id 1 
     name lhipjoint
     direction 0.500677 -0.737119 0.453848 
     length 2.34727 
     axis 0 -0 0  XYZ
  end
  begin
     id 2 
     name lfemur
     direction 0.34202 -0.939693 0  
     length 7.53653  
     axis 0 -0 20  XYZ
    dof rx ry rz
    limits (-160.0 20.0)
           (-70.0 70.0)
           (-60.0 70.0)
  end
  begin
     id 3 
     name ltibia
     direction 0.34202 -0.939693 0   
     length 6.85572   
     axis 0 -0 20   XYZ
    dof rx
    limits (-10.0 170.0)
  end
  begin
     id 4 
     name lfoot
     direction 0.155313 -0.426718 0.890949   
     length 2.18324   
     axis -90 -1.13533e-015 20   XYZ
    dof rx rz
    limits (-45.0 90.0)
           (-70.0 20.0)
  end
  begin
     id 5 
     name ltoes
     direction 1.53474e-011 -4.21647e-011 1   
     length 1.06748   
     axis -90 -1.13533e-015 20   XYZ
    dof rx
    limits (-90.0 20.0)
  end
  begin
     id 6 
     name rhipjoint
     direction -0.632471 -0.659587 0.406111   
     length 2.62319  
     axis 0 -0 0  XYZ 
  end
  begin
     id 7 
     name rfemur
     direction -0.34202 -0.939693 0   
     length 7.21735   
     axis 0 -0 -20   XYZ
    dof rx ry rz
    limits (-160.0 20.0)
           (-70.0 70.0)
           (-70.0 60.0)
  end
  begin
     id 8 
     name rtibia
     direction -0.34202 -0.939693 0   
     length 7.02558   
     axis 0 -0 -20   XYZ
    dof rx
    limits (-10.0 170.0)
 end
 begin
     id 9 
     name rfoot
     direction -0.16057 -0.441164 0.882945   
     length 2.10014  
     axis -90 1.13533e-015 -20   XYZ
    dof rx rz
    limits (-45.0 90.0)
           (-20.0 70.0)
  end
  begin
     id 10 
     name rtoes
     direction -1.53553e-011 -4.2192e-011 1   
     length 1.02554   
     axis -90 1.13533e-015 -20   XYZ
    dof rx
    limits (-90.0 20.0)
  end
  begin
     id 11 
     name lowerback
     direction 0.0401429 0.998861 -0.0258085   
     length 1.80848   
     axis 0 -0 0   XYZ
    dof rx ry rz
    limits (-20.0 45.0)
           (-30.0 30.0)
           (-30.0 30.0)
  end
  begin
     id 12 
     name upperback
     direction -0.0130978 0.999914 -0.000352645   
     length 1.8116   
     axis 0 -0 0   XYZ
    dof rx ry rz
    limits (-20.0 45.0)
           (-30.0 30.0)
           (-30.0 30.0)
  end
  begin
     id 13 
     name thorax
     direction -0.0300198 0.999453 0.0138573   
     length 1.81778   
     axis 0 -0 0   XYZ
    dof rx ry rz
    limits (-20.0 45.0)
           (-30.0 30.0)
           (-30.0 30.0)
  end
  begin
     id 14 
     name lowerneck
     direction -0.0401726 0.999191 -0.00173647   
     length 2.10594   
     axis 0 -0 0   XYZ
    dof rx ry rz
    limits (-20.0 45.0)
           (-30.0 30.0)
           (-30.0 30.0)
  end
  begin
     id 15 
     name upperneck
     direction 0.0119835 0.998501 0.0534085   
     length 2.07325   
     axis 0 -0 0   XYZ
    dof rx ry rz
    limits (-20.0 45.0)
           (-30.0 30.0)
           (-30.0 30.0)
  end
  begin
     id 16
     name head
     direction 0.00628309 0.999826 0.0175921  
     length 2.15096  
     axis 0 -0 0   XYZ
    dof rx ry rz
    limits (-20.0 45.0)
           (-30.0 30.0)
           (-30.0 30.0)
  end
  begin
     id 17 
     name lclavicle
     direction 0.895501 0.429681 -0.115981  
     length 4.18092  
     axis 0 -0 0   XYZ
    dof ry rz
    limits (-20.0 10.0)
           (0.0 20.0)
  end
  begin
     id 18 
     name lhumerus
     direction 1 -4.48961e-011 -3.38433e-028   
     length 5.77237   
     axis 180 -30 -90   XYZ
    dof rx ry rz
    limits (-60.0 90.0)
           (-90.0 90.0)
           (-90.0 90.0)
  end
  begin
     id 19
     name lradius
     direction 1 -4.4901e-011 1.11983e-026   
     length 2.91878   
     axis 180 -30 -90   XYZ
    dof rx
    limits (-10.0 170.0)
  end
  begin
     id 20
     name lwrist
     direction 1 -4.48934e-011 1.88176e-026   
     length 1.45939   
     axis -1.23311e-014 90 90   XYZ
    dof ry
    limits (-180.0 0.0)
 end
  begin
     id 21 
     name lhand
     direction 1 -4.4895e-011 3.76352e-026   
     length 1.06566   
     axis -2.40147e-014 90 90   XYZ
    dof rx rz
    limits (-90.0 90.0)
           (-45.0 45.0)
  end
  begin
     id 22 
     name lfingers
     direction 1 -4.49005e-011 7.52705e-026   
     length 0.859162   
     axis -4.80295e-014 90 90   XYZ
    dof rx
    limits (0.0 90.0)
  end
  begin
     id 23
     name lthumb
     direction 0.707107 -6.34885e-011 0.707107   
     length 1.23359   
     axis -90 45 -9.86935e-015   XYZ
    dof rx rz
    limits (-45.0 45.0)
           (-45.0 45.0)
  end
  begin
     id 24 
     name rclavicle
     direction -0.91006 0.40451 -0.0903492   
     length 4.23293  
     axis 0 -0 0   XYZ 
    dof ry rz
    limits (-10.0 20.0)
           (-20.0 0.0)
  end
  begin
     id 25 
     name rhumerus
     direction -1 -4.4897e-011 1.7415e-027  
     length 5.49854   
     axis 180 30 90   XYZ
    dof rx ry rz
    limits (-90.0 60.0)
           (-90.0 90.0)
           (-90.0 90.0)
  end
  begin
     id 26 
     name rradius
     direction -1 -4.48963e-011 1.21259e-026   
     length 3.1186   
     axis 180 30 90   XYZ
    dof rx
    limits (-10.0 170.0)
  end
  begin
     id 27 
     name rwrist
     direction -1 -4.48967e-011 1.88176e-026   
     length 1.5593   
     axis -1.23311e-014 -90 -90   XYZ
    dof ry
    limits (-180.0 0.0)
  end
  begin
     id 28
     name rhand
     direction -1 -4.4895e-011 3.76352e-026   
     length 0.71207   
     axis -2.40147e-014 -90 -90   XYZ
    dof rx rz
    limits (-90.0 90.0)
           (-45.0 45.0)
  end
  begin
     id 29
     name rfingers
     direction -1 -4.49005e-011 7.52705e-026   
     length 0.574089   
     axis -4.80295e-014 -90 -90   XYZ
    dof rx
    limits (0.0 90.0)
  end
  begin
     id 30
     name rthumb
     direction -0.707107 -6.34982e-011 0.707107   
     length 0.824281   
     axis -90 -45 9.86935e-015   XYZ
    dof rx rz
    limits (-45.0 45.0)
           (-45.0 45.0)
  end
:hierarchy
  begin
    root lhipjoint rhipjoint lowerback
    lhipjoint lfemur
    lfemur ltibia
    ltibia lfoot
    lfoot ltoes
    rhipjoint rfemur
    rfemur rtibia
    rtibia rfoot
    rfoot rtoes
    lowerback upperback
    upperback thorax
    thorax lowerneck lclavicle rclavicle
    lowerneck upperneck
    upperneck head
    lclavicle lhumerus
    lhumerus lradius
    lradius lwrist
    lwrist lhand lthumb
    lhand lfingers
    rclavicle rhumerus
    rhumerus rradius
    rradius rwrist
    rwrist rhand rthumb
    rhand rfingers
  end

#!OML:ASF C:\ViconDB\ViconDB\414\Spring2016\042216\male.ASF
:FULLY-SPECIFIED
:DEGREES
507
root 12.7446 15.7276 14.7394 -165.103 15.8549 -172.519
lowerback 7.12076 -4.13827 5.23756
upperback 1.24882 -5.0444 0.0756115
thorax -3.13463 -2.53523 -2.34202
lowerneck 3.55236 -9.57937 -13.5985
upperneck -12.6173 -12.1415 15.2856
head -2.42877 -6.02843 7.08946
rclavicle 1.19271e-014 -3.18055e-015
rhumerus -26.2157 -3.54571 -91.0141
rradius 32.0398
rwrist 17.3307
rhand 9.74952 -20.609
rfingers 7.12502
rthumb 34.8887 -47.191
lclavicle 1.19271e-014 -3.18055e-015
lhumerus -41.7517 25.6262 74.4651
lradius 24.1747
lwrist -33.8108
lhand -3.99531 12.0804
lfingers 7.12502
lthumb 21.7585 40.8775
rfemur -27.9661 -3.67921 29.6178
rtibia 58.9817
rfoot -36.2328 0.21448
rtoes -11.6759
lfemur -33.6454 2.03193 -11.2542
ltibia 65.1868
lfoot -47.5848 16.4592
ltoes -27.0905
508
root 12.6854 15.5586 14.8967 -165.118 15.5438 -173.058
lowerback 7.74227 -4.09713 5.30079
upperback 1.31553 -4.95266 -0.235008
thorax -3.43701 -2.49389 -2.66764
lowerneck 3.32794 -9.91538 -13.9732
upperneck -12.6742 -12.5196 16.0777
head -2.26255 -6.22135 7.36236
rclavicle -3.4191e-014 2.06736e-014
rhumerus -25.3767 -5.53675 -90.7894
rradius 30.8001
rwrist 18.4586
rhand 8.93312 -21.8507
rfingers 7.12502
rthumb 34.1138 -48.6091
lclavicle -3.4191e-014 2.06736e-014
lhumerus -40.6667 25.7342 75.0549
lradius 25.1742
lwrist -31.9701
lhand -5.13217 12.868
lfingers 7.12502
lthumb 20.6664 41.7877
rfemur -30.1698 -4.97442 29.5083
rtibia 61.9621
rfoot -38.0299 -1.03392
rtoes -11.811
lfemur -35.7907 1.99355 -11.9433
ltibia 67.7678
lfoot -48.6532 17.2654
ltoes -27.4671
509
root 12.6382 15.4044 15.0257 -165.24 15.3963 -173.146
lowerback 8.52304 -4.07222 5.718
upperback 1.31846 -4.83254 -0.421559
thorax -3.90909 -2.44659 -3.05493
lowerneck 3.28982 -10.2593 -13.9197
upperneck -12.8038 -12.9528 16.2419
head -2.2185 -6.43911 7.38862
rclavicle 4.53229e-014 -1.90833e-014
rhumerus -24.9942 -7.50556 -90.5419
rradius 29.602
rwrist 21.7105
rhand 8.84656 -21.8757
rfingers 7.12502
rthumb 34.0315 -48.6525
lclavicle 4.53229e-014 -1.90833e-014
lhumerus -39.7998 25.6675 75.7909
lradius 26.1998
lwrist -29.36
lhand -6.09138 13.4347
lfingers 7.12502
lthumb 19.7445 42.4519
rfemur -31.6793 -4.84558 29.7168
rtibia 64.4155
rfoot -39.4451 -2.67712
rtoes -11.5792
lfemur -37.4185 1.5116 -12.1099
ltibia 70.015
lfoot -48.8904 18.2399
ltoes -27.7248
510
root 12.586 15.2819 15.1132 -165.161 15.2827 -173.168
lowerback 8.65429 -4.08104 6.25708
upperback 1.29066 -4.78648 -0.492276
thorax -4.05713 -2.43573 -3.42428
lowerneck 3.62806 -10.546 -14.2057
upperneck -13.0663 -13.3704 16.5124
head -2.24481 -6.65669 7.53006
rclavicle 1.98785e-014 2.54444e-014
rhumerus -24.856 -8.21078 -90.3798
rradius 28.9099
rwrist 24.3184
rhand 9.13119 -22.3891
rfingers 7.12502
rthumb 34.3018 -49.1054
lclavicle 1.98785e-014 2.54444e-014
lhumerus -38.9266 25.6474 76.7958
lradius 27.5553
lwrist -25.5134
lhand -5.81152 14.1005
lfingers 7.12502
lthumb 20.0135 43.0898
rfemur -33.0302 -4.01646 29.871
rtibia 66.4433
rfoot -40.5374 -4.79421
rtoes -12.0992
lfemur -38.9291 1.07802 -12.2607
ltibia 71.984
lfoot -48.9555 19.1979
ltoes -28.2205
511
root 12.5452 15.1985 15.1854 -165.221 15.1363 -173.415
lowerback 8.66713 -4.10485 6.43696
upperback 1.35159 -4.8032 -0.585774
thorax -4.02529 -2.44398 -3.621
lowerneck 3.81663 -10.7894 -14.365
upperneck -13.4255 -13.6891 16.7059
head -2.30297 -6.81579 7.62802
rclavicle -3.57812e-015 -1.90833e-014
rhumerus -24.7106 -7.94162 -90.5182
rradius 28.6176
rwrist 26.6346
rhand 9.50915 -22.8815
rfingers 7.12502
rthumb 34.6606 -49.5161
lclavicle -3.57812e-015 -1.90833e-014
lhumerus -37.9667 25.6169 77.7412
lradius 28.4258
lwrist -22.5645
lhand -6.06271 13.5329
lfingers 7.12502
lthumb 19.7721 42.5472
rfemur -34.0729 -3.14089 29.7038
rtibia 68.1412
rfoot -41.1549 -6.55006
rtoes -12.7771
lfemur -39.9834 0.859668 -12.6047
ltibia 73.4771
lfoot -49.2254 19.3646
ltoes -28.1589
512
root 12.5132 15.1354 15.2796 -164.91 15.1332 -173.164
lowerback 8.79267 -4.06902 6.76452
upperback 1.25572 -4.71082 -0.514779
thorax -4.20565 -2.4103 -3.73023
lowerneck 4.0366 -10.9315 -14.4431
upperneck -13.8078 -13.8668 16.8511
head -2.40403 -6.90686 7.7098
rclavicle -1.0138e-013 9.54166e-015
rhumerus -24.8222 -6.86218 -90.9347
rradius 28.7321
rwrist 28.4661
rhand 9.91479 -22.7678
rfingers 7.12502
rthumb 35.0455 -49.3132
lclavicle -1.0138e-013 9.54166e-015
lhumerus -36.9988 25.2276 78.8091
lradius 29.477
lwrist -19.5753
lhand -5.96667 13.4816
lfingers 7.12502
lthumb 19.8644 42.4864
rfemur -35.4425 -1.6384 30.004
rtibia 69.5456
rfoot -41.0444 -7.95664
rtoes -13.6697
lfemur -41.2555 0.987286 -12.3319
ltibia 74.5903
lfoot -49.1551 19.3614
ltoes -28.461
513
root 12.4897 15.0992 15.3809 -164.822 15.5203 -173.274
lowerback 9.15609 -3.90517 6.48732
upperback 1.12704 -4.49404 -0.557708
thorax -4.49982 -2.31093 -3.62515
lowerneck 4.36375 -11.0384 -14.4005
upperneck -14.2279 -14.0089 16.8725
head -2.5597 -6.98371 7.74834
rclavicle 1.11319e-014 -2.06736e-014
rhumerus -25.153 -5.33837 -91.5076
rradius 29.1301
rwrist 29.4236
rhand 10.2735 -22.1382
rfingers 7.12502
rthumb 35.3857 -48.6033
lclavicle 1.11319e-014 -2.06736e-014
lhumerus -36.2872 24.4596 79.9229
lradius 30.9751
lwrist -16.0758
lhand -6.24805 13.5421
lfingers 7.12502
lthumb 19.5939 42.5747
rfemur -36.6556 -0.0441544 29.8394
rtibia 70.6646
rfoot -40.4997 -9.33732
rtoes -15.031
lfemur -42.0702 1.1478 -12.4839
ltibia 75.207
lfoot -49.0562 19.3626
ltoes -28.3495
514
root 12.4713 15.0814 15.4692 -164.776 15.8772 -173.191
lowerback 9.38328 -3.80355 6.46153
upperback 1.02854 -4.34393 -0.552412
thorax -4.71063 -2.24481 -3.61075
lowerneck 4.5347 -11.0623 -14.4376
upperneck -14.2808 -14.0852 16.7018
head -2.60566 -7.01814 7.71376
rclavicle 4.53229e-014 -9.54166e-015
rhumerus -25.4877 -3.44901 -92.2023
rradius 29.6023
rwrist 29.6922
rhand 10.579 -21.0426
rfingers 7.12502
rthumb 35.6753 -47.4383
lclavicle 4.53229e-014 -9.54166e-015
lhumerus -35.5519 23.9897 80.7584
lradius 32.1567
lwrist -13.2108
lhand -6.31661 13.7933
lfingers 7.12502
lthumb 19.528 42.8327
rfemur -37.5219 1.44001 29.8334
rtibia 71.4246
rfoot -39.7519 -10.5415
rtoes -16.8367
lfemur -42.5343 1.0548 -12.3751
ltibia 75.4961
lfoot -49.0222 19.6918
ltoes -28.3486
515
root 12.4561 15.089 15.545 -164.801 16.1651 -173.471
lowerback 9.42083 -3.68633 6.22745
upperback 0.908754 -4.21964 -0.681424
thorax -4.83602 -2.18941 -3.62777
lowerneck 4.8488 -11.1326 -14.2618
upperneck -14.4453 -14.2294 16.3753
head -2.72831 -7.09069 7.6142
rclavicle -5.56597e-015 -7.95139e-016
rhumerus -25.9554 -1.31475 -92.9954
rradius 30.1439
rwrist 29.3485
rhand 10.6629 -19.9092
rfingers 7.12502
rthumb 35.7549 -46.2855
lclavicle -5.56597e-015 -7.95139e-016
lhumerus -34.951 22.5502 81.7981
lradius 33.6829
lwrist -10.0787
lhand -6.20128 14.9369
lfingers 7.12502
lthumb 19.6389 43.9649
rfemur -38.1304 2.30003 29.4114
rtibia 71.7817
rfoot -39.4404 -10.7618
rtoes -16.8132
lfemur -42.8338 0.649914 -12.6369
ltibia 75.4431
lfoot -48.7269 20.1878
ltoes -28.4119
516
root 12.4464 15.1133 15.6203 -164.775 16.1911 -173.579
lowerback 9.31528 -3.67445 6.20389
upperback 0.864647 -4.21556 -0.681671
thorax -4.82117 -2.18907 -3.61977
lowerneck 4.84717 -11.1555 -14.2322
upperneck -14.5315 -14.2821 16.0481
head -2.77896 -7.09619 7.51335
rclavicle -6.36111e-014 -6.36111e-015
rhumerus -26.1912 1.13623 -93.877
rradius 30.8676
rwrist 27.809
rhand 10.8072 -19.8035
rfingers 7.12502
rthumb 35.8915 -46.1466
lclavicle -6.36111e-014 -6.36111e-015
lhumerus -34.283 20.9868 82.9027
lradius 35.1154
lwrist -7.54714
lhand -6.74354 15.404
lfingers 7.12502
lthumb 19.1175 44.4844
rfemur -38.4735 2.67558 29.2641
rtibia 71.6703
rfoot -39.0534 -10.8024
rtoes -16.7278
lfemur -43.1086 0.175369 -12.5915
ltibia 75.15
lfoot -48.2106 20.276
ltoes -27.9219
